<svg width="131" height="48" viewBox="0 0 131 48" fill="none" xmlns="http://www.w3.org/2000/svg">
<g clip-path="url(#clip0_9023_252669)">
<path d="M38.5468 0.5H8.58814C3.84504 0.5 0 4.32586 0 9.04531V38.8545C0 43.574 3.84504 47.3999 8.58814 47.3999H38.5468C43.2899 47.3999 47.135 43.574 47.135 38.8545V9.04531C47.135 4.32586 43.2899 0.5 38.5468 0.5Z" fill="#FFE681"/>
<path d="M59.0029 31.1279C58.3461 31.1279 57.7249 31.0395 57.1392 30.863C56.5534 30.6864 56.0298 30.4303 55.5684 30.0948C55.1068 29.7415 54.7341 29.3088 54.4501 28.7967C54.1839 28.2668 54.0508 27.6487 54.0508 26.9422C54.0508 26.0415 54.2283 25.3086 54.5833 24.7434C54.9383 24.1606 55.4175 23.7191 56.0209 23.4189C56.6421 23.1187 57.3433 22.9156 58.1242 22.8096C58.9052 22.686 59.7217 22.6242 60.5737 22.6242H63.316C63.316 22.0061 63.2183 21.4761 63.0231 21.0346C62.8279 20.5754 62.5172 20.2135 62.0913 19.9485C61.683 19.6836 61.1506 19.5511 60.4938 19.5511C60.0678 19.5511 59.6685 19.6042 59.2957 19.7101C58.9407 19.7984 58.6301 19.9485 58.3639 20.1604C58.1154 20.3547 57.9379 20.6108 57.8315 20.9287H54.5034C54.6276 20.2046 54.8761 19.5865 55.2488 19.0743C55.6394 18.5445 56.1097 18.1117 56.6599 17.7761C57.2279 17.4406 57.8491 17.1933 58.5237 17.0344C59.1981 16.8578 59.8815 16.7695 60.5737 16.7695C62.6149 16.7695 64.0969 17.3523 65.02 18.518C65.9607 19.6836 66.431 21.3172 66.431 23.4189V30.9425H63.5556L63.4757 29.141C63.0675 29.7415 62.5793 30.1831 62.0114 30.4656C61.4434 30.7481 60.8932 30.9248 60.3607 30.9954C59.8282 31.0837 59.3756 31.1279 59.0029 31.1279ZM59.6418 28.5053C60.3518 28.5053 60.982 28.3727 61.5322 28.1078C62.0824 27.8429 62.5172 27.4721 62.8368 26.9952C63.174 26.5184 63.3426 25.971 63.3426 25.3527V24.9023H60.7867C60.3607 24.9023 59.9347 24.9201 59.5087 24.9554C59.1005 24.973 58.7278 25.0437 58.3905 25.1673C58.0532 25.2733 57.7781 25.441 57.5652 25.6706C57.3699 25.9003 57.2723 26.227 57.2723 26.6508C57.2723 27.0747 57.3788 27.4191 57.5918 27.684C57.8226 27.9489 58.1154 28.152 58.4704 28.2933C58.8431 28.4346 59.2336 28.5053 59.6418 28.5053ZM75.7358 31.1279C73.7118 31.1279 72.1587 30.6069 71.0767 29.5649C70.0113 28.5229 69.4788 26.9335 69.4788 24.7964V16.9815H72.727V24.5845C72.727 25.3262 72.8244 25.971 73.0198 26.5184C73.233 27.0659 73.5615 27.4897 74.0052 27.7899C74.4662 28.0725 75.043 28.2139 75.7358 28.2139C76.4808 28.2139 77.0669 28.0637 77.4928 27.7635C77.9366 27.4456 78.2471 27.0129 78.4247 26.4655C78.6021 25.9179 78.6909 25.2909 78.6909 24.5845V16.9815H81.9387V24.7964C81.9387 26.9864 81.389 28.5936 80.2883 29.6179C79.2054 30.6246 77.6882 31.1279 75.7358 31.1279ZM85.0283 30.9425V16.9815H87.9834L88.1701 18.8094C88.5251 18.2796 88.9245 17.8733 89.3683 17.5908C89.8292 17.2905 90.3173 17.0786 90.8326 16.955C91.365 16.8314 91.8979 16.7695 92.4301 16.7695C92.6243 16.7695 92.802 16.7695 92.9624 16.7695C93.1401 16.7695 93.2821 16.7784 93.3883 16.796V19.869H92.5355C91.613 19.869 90.8326 20.0456 90.1934 20.3988C89.5543 20.7521 89.0748 21.2554 88.7556 21.9088C88.4365 22.5624 88.2761 23.3659 88.2761 24.3195V30.9425H85.0283ZM101.502 31.1279C99.4785 31.1279 97.9248 30.6069 96.842 29.5649C95.7775 28.5229 95.2443 26.9335 95.2443 24.7964V16.9815H98.4937V24.5845C98.4937 25.3262 98.5908 25.971 98.7859 26.5184C98.9994 27.0659 99.3273 27.4897 99.7707 27.7899C100.232 28.0725 100.81 28.2139 101.502 28.2139C102.247 28.2139 102.833 28.0637 103.259 27.7635C103.703 27.4456 104.013 27.0129 104.191 26.4655C104.369 25.9179 104.457 25.2909 104.457 24.5845V16.9815H107.705V24.7964C107.705 26.9864 107.154 28.5936 106.054 29.6179C104.971 30.6246 103.454 31.1279 101.502 31.1279ZM110.795 30.9425V16.9815H113.776L113.989 18.571C114.345 18.0941 114.726 17.732 115.133 17.4847C115.56 17.2199 115.995 17.0344 116.439 16.9285C116.901 16.8225 117.336 16.7695 117.743 16.7695C118.631 16.7695 119.385 16.9461 120.006 17.2994C120.646 17.6526 121.142 18.1824 121.497 18.8889C121.852 18.3944 122.251 17.997 122.695 17.6967C123.139 17.3788 123.61 17.1492 124.106 17.008C124.603 16.849 125.127 16.7695 125.678 16.7695C126.76 16.7695 127.63 16.9991 128.287 17.4583C128.943 17.8998 129.423 18.518 129.724 19.3128C130.026 20.0898 130.177 20.9816 130.177 21.9883V30.9425H126.928V23.0215C126.928 22.6683 126.912 22.2975 126.876 21.9088C126.84 21.5203 126.742 21.1582 126.583 20.8227C126.441 20.4871 126.228 20.2135 125.943 20.0015C125.659 19.7896 125.26 19.6836 124.746 19.6836C124.231 19.6836 123.804 19.7984 123.467 20.028C123.148 20.2399 122.882 20.5313 122.668 20.9022C122.473 21.2554 122.331 21.6527 122.243 22.0944C122.172 22.5182 122.136 22.9421 122.136 23.3659V30.9425H118.888V22.995C118.888 22.6594 118.862 22.3063 118.808 21.9354C118.773 21.5468 118.684 21.1847 118.542 20.8492C118.419 20.496 118.205 20.2135 117.903 20.0015C117.62 19.7896 117.219 19.6836 116.705 19.6836C115.96 19.6836 115.392 19.8867 115.001 20.2929C114.629 20.6991 114.371 21.1936 114.229 21.7764C114.105 22.3593 114.042 22.9156 114.042 23.4453V30.9425H110.795Z" fill="#373741"/>
<path d="M59.0029 31.1279C58.3461 31.1279 57.7249 31.0395 57.1392 30.863C56.5534 30.6864 56.0298 30.4303 55.5684 30.0948C55.1068 29.7415 54.7341 29.3088 54.4501 28.7967C54.1839 28.2668 54.0508 27.6487 54.0508 26.9422C54.0508 26.0415 54.2283 25.3086 54.5833 24.7434C54.9383 24.1606 55.4175 23.7191 56.0209 23.4189C56.6421 23.1187 57.3433 22.9156 58.1242 22.8096C58.9052 22.686 59.7217 22.6242 60.5737 22.6242H63.316C63.316 22.0061 63.2183 21.4761 63.0231 21.0346C62.8279 20.5754 62.5172 20.2135 62.0913 19.9485C61.683 19.6836 61.1506 19.5511 60.4938 19.5511C60.0678 19.5511 59.6685 19.6042 59.2957 19.7101C58.9407 19.7984 58.6301 19.9485 58.3639 20.1604C58.1154 20.3547 57.9379 20.6108 57.8315 20.9287H54.5034C54.6276 20.2046 54.8761 19.5865 55.2488 19.0743C55.6394 18.5445 56.1097 18.1117 56.6599 17.7761C57.2279 17.4406 57.8491 17.1933 58.5237 17.0344C59.1981 16.8578 59.8815 16.7695 60.5737 16.7695C62.6149 16.7695 64.0969 17.3523 65.02 18.518C65.9607 19.6836 66.431 21.3172 66.431 23.4189V30.9425H63.5556L63.4757 29.141C63.0675 29.7415 62.5793 30.1831 62.0114 30.4656C61.4434 30.7481 60.8932 30.9248 60.3607 30.9954C59.8282 31.0837 59.3756 31.1279 59.0029 31.1279ZM59.6418 28.5053C60.3518 28.5053 60.982 28.3727 61.5322 28.1078C62.0824 27.8429 62.5172 27.4721 62.8368 26.9952C63.174 26.5184 63.3426 25.971 63.3426 25.3527V24.9023H60.7867C60.3607 24.9023 59.9347 24.9201 59.5087 24.9554C59.1005 24.973 58.7278 25.0437 58.3905 25.1673C58.0532 25.2733 57.7781 25.441 57.5652 25.6706C57.3699 25.9003 57.2723 26.227 57.2723 26.6508C57.2723 27.0747 57.3788 27.4191 57.5918 27.684C57.8226 27.9489 58.1154 28.152 58.4704 28.2933C58.8431 28.4346 59.2336 28.5053 59.6418 28.5053ZM75.7358 31.1279C73.7118 31.1279 72.1587 30.6069 71.0767 29.5649C70.0113 28.5229 69.4788 26.9335 69.4788 24.7964V16.9815H72.727V24.5845C72.727 25.3262 72.8244 25.971 73.0198 26.5184C73.233 27.0659 73.5615 27.4897 74.0052 27.7899C74.4662 28.0725 75.043 28.2139 75.7358 28.2139C76.4808 28.2139 77.0669 28.0637 77.4928 27.7635C77.9366 27.4456 78.2471 27.0129 78.4247 26.4655C78.6021 25.9179 78.6909 25.2909 78.6909 24.5845V16.9815H81.9387V24.7964C81.9387 26.9864 81.389 28.5936 80.2883 29.6179C79.2054 30.6246 77.6882 31.1279 75.7358 31.1279ZM85.0283 30.9425V16.9815H87.9834L88.1701 18.8094C88.5251 18.2796 88.9245 17.8733 89.3683 17.5908C89.8292 17.2905 90.3173 17.0786 90.8326 16.955C91.365 16.8314 91.8979 16.7695 92.4301 16.7695C92.6243 16.7695 92.802 16.7695 92.9624 16.7695C93.1401 16.7695 93.2821 16.7784 93.3883 16.796V19.869H92.5355C91.613 19.869 90.8326 20.0456 90.1934 20.3988C89.5543 20.7521 89.0748 21.2554 88.7556 21.9088C88.4365 22.5624 88.2761 23.3659 88.2761 24.3195V30.9425H85.0283ZM101.502 31.1279C99.4785 31.1279 97.9248 30.6069 96.842 29.5649C95.7775 28.5229 95.2443 26.9335 95.2443 24.7964V16.9815H98.4937V24.5845C98.4937 25.3262 98.5908 25.971 98.7859 26.5184C98.9994 27.0659 99.3273 27.4897 99.7707 27.7899C100.232 28.0725 100.81 28.2139 101.502 28.2139C102.247 28.2139 102.833 28.0637 103.259 27.7635C103.703 27.4456 104.013 27.0129 104.191 26.4655C104.369 25.9179 104.457 25.2909 104.457 24.5845V16.9815H107.705V24.7964C107.705 26.9864 107.154 28.5936 106.054 29.6179C104.971 30.6246 103.454 31.1279 101.502 31.1279ZM110.795 30.9425V16.9815H113.776L113.989 18.571C114.345 18.0941 114.726 17.732 115.133 17.4847C115.56 17.2199 115.995 17.0344 116.439 16.9285C116.901 16.8225 117.336 16.7695 117.743 16.7695C118.631 16.7695 119.385 16.9461 120.006 17.2994C120.646 17.6526 121.142 18.1824 121.497 18.8889C121.852 18.3944 122.251 17.997 122.695 17.6967C123.139 17.3788 123.61 17.1492 124.106 17.008C124.603 16.849 125.127 16.7695 125.678 16.7695C126.76 16.7695 127.63 16.9991 128.287 17.4583C128.943 17.8998 129.423 18.518 129.724 19.3128C130.026 20.0898 130.177 20.9816 130.177 21.9883V30.9425H126.928V23.0215C126.928 22.6683 126.912 22.2975 126.876 21.9088C126.84 21.5203 126.742 21.1582 126.583 20.8227C126.441 20.4871 126.228 20.2135 125.943 20.0015C125.659 19.7896 125.26 19.6836 124.746 19.6836C124.231 19.6836 123.804 19.7984 123.467 20.028C123.148 20.2399 122.882 20.5313 122.668 20.9022C122.473 21.2554 122.331 21.6527 122.243 22.0944C122.172 22.5182 122.136 22.9421 122.136 23.3659V30.9425H118.888V22.995C118.888 22.6594 118.862 22.3063 118.808 21.9354C118.773 21.5468 118.684 21.1847 118.542 20.8492C118.419 20.496 118.205 20.2135 117.903 20.0015C117.62 19.7896 117.219 19.6836 116.705 19.6836C115.96 19.6836 115.392 19.8867 115.001 20.2929C114.629 20.6991 114.371 21.1936 114.229 21.7764C114.105 22.3593 114.042 22.9156 114.042 23.4453V30.9425H110.795Z" fill="black" fill-opacity="0.2"/>
<path d="M59.0029 31.1279C58.3461 31.1279 57.7249 31.0395 57.1392 30.863C56.5534 30.6864 56.0298 30.4303 55.5684 30.0948C55.1068 29.7415 54.7341 29.3088 54.4501 28.7967C54.1839 28.2668 54.0508 27.6487 54.0508 26.9422C54.0508 26.0415 54.2283 25.3086 54.5833 24.7434C54.9383 24.1606 55.4175 23.7191 56.0209 23.4189C56.6421 23.1187 57.3433 22.9156 58.1242 22.8096C58.9052 22.686 59.7217 22.6242 60.5737 22.6242H63.316C63.316 22.0061 63.2183 21.4761 63.0231 21.0346C62.8279 20.5754 62.5172 20.2135 62.0913 19.9485C61.683 19.6836 61.1506 19.5511 60.4938 19.5511C60.0678 19.5511 59.6685 19.6042 59.2957 19.7101C58.9407 19.7984 58.6301 19.9485 58.3639 20.1604C58.1154 20.3547 57.9379 20.6108 57.8315 20.9287H54.5034C54.6276 20.2046 54.8761 19.5865 55.2488 19.0743C55.6394 18.5445 56.1097 18.1117 56.6599 17.7761C57.2279 17.4406 57.8491 17.1933 58.5237 17.0344C59.1981 16.8578 59.8815 16.7695 60.5737 16.7695C62.6149 16.7695 64.0969 17.3523 65.02 18.518C65.9607 19.6836 66.431 21.3172 66.431 23.4189V30.9425H63.5556L63.4757 29.141C63.0675 29.7415 62.5793 30.1831 62.0114 30.4656C61.4434 30.7481 60.8932 30.9248 60.3607 30.9954C59.8282 31.0837 59.3756 31.1279 59.0029 31.1279ZM59.6418 28.5053C60.3518 28.5053 60.982 28.3727 61.5322 28.1078C62.0824 27.8429 62.5172 27.4721 62.8368 26.9952C63.174 26.5184 63.3426 25.971 63.3426 25.3527V24.9023H60.7867C60.3607 24.9023 59.9347 24.9201 59.5087 24.9554C59.1005 24.973 58.7278 25.0437 58.3905 25.1673C58.0532 25.2733 57.7781 25.441 57.5652 25.6706C57.3699 25.9003 57.2723 26.227 57.2723 26.6508C57.2723 27.0747 57.3788 27.4191 57.5918 27.684C57.8226 27.9489 58.1154 28.152 58.4704 28.2933C58.8431 28.4346 59.2336 28.5053 59.6418 28.5053ZM75.7358 31.1279C73.7118 31.1279 72.1587 30.6069 71.0767 29.5649C70.0113 28.5229 69.4788 26.9335 69.4788 24.7964V16.9815H72.727V24.5845C72.727 25.3262 72.8244 25.971 73.0198 26.5184C73.233 27.0659 73.5615 27.4897 74.0052 27.7899C74.4662 28.0725 75.043 28.2139 75.7358 28.2139C76.4808 28.2139 77.0669 28.0637 77.4928 27.7635C77.9366 27.4456 78.2471 27.0129 78.4247 26.4655C78.6021 25.9179 78.6909 25.2909 78.6909 24.5845V16.9815H81.9387V24.7964C81.9387 26.9864 81.389 28.5936 80.2883 29.6179C79.2054 30.6246 77.6882 31.1279 75.7358 31.1279ZM85.0283 30.9425V16.9815H87.9834L88.1701 18.8094C88.5251 18.2796 88.9245 17.8733 89.3683 17.5908C89.8292 17.2905 90.3173 17.0786 90.8326 16.955C91.365 16.8314 91.8979 16.7695 92.4301 16.7695C92.6243 16.7695 92.802 16.7695 92.9624 16.7695C93.1401 16.7695 93.2821 16.7784 93.3883 16.796V19.869H92.5355C91.613 19.869 90.8326 20.0456 90.1934 20.3988C89.5543 20.7521 89.0748 21.2554 88.7556 21.9088C88.4365 22.5624 88.2761 23.3659 88.2761 24.3195V30.9425H85.0283ZM101.502 31.1279C99.4785 31.1279 97.9248 30.6069 96.842 29.5649C95.7775 28.5229 95.2443 26.9335 95.2443 24.7964V16.9815H98.4937V24.5845C98.4937 25.3262 98.5908 25.971 98.7859 26.5184C98.9994 27.0659 99.3273 27.4897 99.7707 27.7899C100.232 28.0725 100.81 28.2139 101.502 28.2139C102.247 28.2139 102.833 28.0637 103.259 27.7635C103.703 27.4456 104.013 27.0129 104.191 26.4655C104.369 25.9179 104.457 25.2909 104.457 24.5845V16.9815H107.705V24.7964C107.705 26.9864 107.154 28.5936 106.054 29.6179C104.971 30.6246 103.454 31.1279 101.502 31.1279ZM110.795 30.9425V16.9815H113.776L113.989 18.571C114.345 18.0941 114.726 17.732 115.133 17.4847C115.56 17.2199 115.995 17.0344 116.439 16.9285C116.901 16.8225 117.336 16.7695 117.743 16.7695C118.631 16.7695 119.385 16.9461 120.006 17.2994C120.646 17.6526 121.142 18.1824 121.497 18.8889C121.852 18.3944 122.251 17.997 122.695 17.6967C123.139 17.3788 123.61 17.1492 124.106 17.008C124.603 16.849 125.127 16.7695 125.678 16.7695C126.76 16.7695 127.63 16.9991 128.287 17.4583C128.943 17.8998 129.423 18.518 129.724 19.3128C130.026 20.0898 130.177 20.9816 130.177 21.9883V30.9425H126.928V23.0215C126.928 22.6683 126.912 22.2975 126.876 21.9088C126.84 21.5203 126.742 21.1582 126.583 20.8227C126.441 20.4871 126.228 20.2135 125.943 20.0015C125.659 19.7896 125.26 19.6836 124.746 19.6836C124.231 19.6836 123.804 19.7984 123.467 20.028C123.148 20.2399 122.882 20.5313 122.668 20.9022C122.473 21.2554 122.331 21.6527 122.243 22.0944C122.172 22.5182 122.136 22.9421 122.136 23.3659V30.9425H118.888V22.995C118.888 22.6594 118.862 22.3063 118.808 21.9354C118.773 21.5468 118.684 21.1847 118.542 20.8492C118.419 20.496 118.205 20.2135 117.903 20.0015C117.62 19.7896 117.219 19.6836 116.705 19.6836C115.96 19.6836 115.392 19.8867 115.001 20.2929C114.629 20.6991 114.371 21.1936 114.229 21.7764C114.105 22.3593 114.042 22.9156 114.042 23.4453V30.9425H110.795Z" fill="black" fill-opacity="0.2"/>
<path d="M59.0029 31.1279C58.3461 31.1279 57.7249 31.0395 57.1392 30.863C56.5534 30.6864 56.0298 30.4303 55.5684 30.0948C55.1068 29.7415 54.7341 29.3088 54.4501 28.7967C54.1839 28.2668 54.0508 27.6487 54.0508 26.9422C54.0508 26.0415 54.2283 25.3086 54.5833 24.7434C54.9383 24.1606 55.4175 23.7191 56.0209 23.4189C56.6421 23.1187 57.3433 22.9156 58.1242 22.8096C58.9052 22.686 59.7217 22.6242 60.5737 22.6242H63.316C63.316 22.0061 63.2183 21.4761 63.0231 21.0346C62.8279 20.5754 62.5172 20.2135 62.0913 19.9485C61.683 19.6836 61.1506 19.5511 60.4938 19.5511C60.0678 19.5511 59.6685 19.6042 59.2957 19.7101C58.9407 19.7984 58.6301 19.9485 58.3639 20.1604C58.1154 20.3547 57.9379 20.6108 57.8315 20.9287H54.5034C54.6276 20.2046 54.8761 19.5865 55.2488 19.0743C55.6394 18.5445 56.1097 18.1117 56.6599 17.7761C57.2279 17.4406 57.8491 17.1933 58.5237 17.0344C59.1981 16.8578 59.8815 16.7695 60.5737 16.7695C62.6149 16.7695 64.0969 17.3523 65.02 18.518C65.9607 19.6836 66.431 21.3172 66.431 23.4189V30.9425H63.5556L63.4757 29.141C63.0675 29.7415 62.5793 30.1831 62.0114 30.4656C61.4434 30.7481 60.8932 30.9248 60.3607 30.9954C59.8282 31.0837 59.3756 31.1279 59.0029 31.1279ZM59.6418 28.5053C60.3518 28.5053 60.982 28.3727 61.5322 28.1078C62.0824 27.8429 62.5172 27.4721 62.8368 26.9952C63.174 26.5184 63.3426 25.971 63.3426 25.3527V24.9023H60.7867C60.3607 24.9023 59.9347 24.9201 59.5087 24.9554C59.1005 24.973 58.7278 25.0437 58.3905 25.1673C58.0532 25.2733 57.7781 25.441 57.5652 25.6706C57.3699 25.9003 57.2723 26.227 57.2723 26.6508C57.2723 27.0747 57.3788 27.4191 57.5918 27.684C57.8226 27.9489 58.1154 28.152 58.4704 28.2933C58.8431 28.4346 59.2336 28.5053 59.6418 28.5053ZM75.7358 31.1279C73.7118 31.1279 72.1587 30.6069 71.0767 29.5649C70.0113 28.5229 69.4788 26.9335 69.4788 24.7964V16.9815H72.727V24.5845C72.727 25.3262 72.8244 25.971 73.0198 26.5184C73.233 27.0659 73.5615 27.4897 74.0052 27.7899C74.4662 28.0725 75.043 28.2139 75.7358 28.2139C76.4808 28.2139 77.0669 28.0637 77.4928 27.7635C77.9366 27.4456 78.2471 27.0129 78.4247 26.4655C78.6021 25.9179 78.6909 25.2909 78.6909 24.5845V16.9815H81.9387V24.7964C81.9387 26.9864 81.389 28.5936 80.2883 29.6179C79.2054 30.6246 77.6882 31.1279 75.7358 31.1279ZM85.0283 30.9425V16.9815H87.9834L88.1701 18.8094C88.5251 18.2796 88.9245 17.8733 89.3683 17.5908C89.8292 17.2905 90.3173 17.0786 90.8326 16.955C91.365 16.8314 91.8979 16.7695 92.4301 16.7695C92.6243 16.7695 92.802 16.7695 92.9624 16.7695C93.1401 16.7695 93.2821 16.7784 93.3883 16.796V19.869H92.5355C91.613 19.869 90.8326 20.0456 90.1934 20.3988C89.5543 20.7521 89.0748 21.2554 88.7556 21.9088C88.4365 22.5624 88.2761 23.3659 88.2761 24.3195V30.9425H85.0283ZM101.502 31.1279C99.4785 31.1279 97.9248 30.6069 96.842 29.5649C95.7775 28.5229 95.2443 26.9335 95.2443 24.7964V16.9815H98.4937V24.5845C98.4937 25.3262 98.5908 25.971 98.7859 26.5184C98.9994 27.0659 99.3273 27.4897 99.7707 27.7899C100.232 28.0725 100.81 28.2139 101.502 28.2139C102.247 28.2139 102.833 28.0637 103.259 27.7635C103.703 27.4456 104.013 27.0129 104.191 26.4655C104.369 25.9179 104.457 25.2909 104.457 24.5845V16.9815H107.705V24.7964C107.705 26.9864 107.154 28.5936 106.054 29.6179C104.971 30.6246 103.454 31.1279 101.502 31.1279ZM110.795 30.9425V16.9815H113.776L113.989 18.571C114.345 18.0941 114.726 17.732 115.133 17.4847C115.56 17.2199 115.995 17.0344 116.439 16.9285C116.901 16.8225 117.336 16.7695 117.743 16.7695C118.631 16.7695 119.385 16.9461 120.006 17.2994C120.646 17.6526 121.142 18.1824 121.497 18.8889C121.852 18.3944 122.251 17.997 122.695 17.6967C123.139 17.3788 123.61 17.1492 124.106 17.008C124.603 16.849 125.127 16.7695 125.678 16.7695C126.76 16.7695 127.63 16.9991 128.287 17.4583C128.943 17.8998 129.423 18.518 129.724 19.3128C130.026 20.0898 130.177 20.9816 130.177 21.9883V30.9425H126.928V23.0215C126.928 22.6683 126.912 22.2975 126.876 21.9088C126.84 21.5203 126.742 21.1582 126.583 20.8227C126.441 20.4871 126.228 20.2135 125.943 20.0015C125.659 19.7896 125.26 19.6836 124.746 19.6836C124.231 19.6836 123.804 19.7984 123.467 20.028C123.148 20.2399 122.882 20.5313 122.668 20.9022C122.473 21.2554 122.331 21.6527 122.243 22.0944C122.172 22.5182 122.136 22.9421 122.136 23.3659V30.9425H118.888V22.995C118.888 22.6594 118.862 22.3063 118.808 21.9354C118.773 21.5468 118.684 21.1847 118.542 20.8492C118.419 20.496 118.205 20.2135 117.903 20.0015C117.62 19.7896 117.219 19.6836 116.705 19.6836C115.96 19.6836 115.392 19.8867 115.001 20.2929C114.629 20.6991 114.371 21.1936 114.229 21.7764C114.105 22.3593 114.042 22.9156 114.042 23.4453V30.9425H110.795Z" fill="black" fill-opacity="0.2"/>
<path d="M59.0029 31.1279C58.3461 31.1279 57.7249 31.0395 57.1392 30.863C56.5534 30.6864 56.0298 30.4303 55.5684 30.0948C55.1068 29.7415 54.7341 29.3088 54.4501 28.7967C54.1839 28.2668 54.0508 27.6487 54.0508 26.9422C54.0508 26.0415 54.2283 25.3086 54.5833 24.7434C54.9383 24.1606 55.4175 23.7191 56.0209 23.4189C56.6421 23.1187 57.3433 22.9156 58.1242 22.8096C58.9052 22.686 59.7217 22.6242 60.5737 22.6242H63.316C63.316 22.0061 63.2183 21.4761 63.0231 21.0346C62.8279 20.5754 62.5172 20.2135 62.0913 19.9485C61.683 19.6836 61.1506 19.5511 60.4938 19.5511C60.0678 19.5511 59.6685 19.6042 59.2957 19.7101C58.9407 19.7984 58.6301 19.9485 58.3639 20.1604C58.1154 20.3547 57.9379 20.6108 57.8315 20.9287H54.5034C54.6276 20.2046 54.8761 19.5865 55.2488 19.0743C55.6394 18.5445 56.1097 18.1117 56.6599 17.7761C57.2279 17.4406 57.8491 17.1933 58.5237 17.0344C59.1981 16.8578 59.8815 16.7695 60.5737 16.7695C62.6149 16.7695 64.0969 17.3523 65.02 18.518C65.9607 19.6836 66.431 21.3172 66.431 23.4189V30.9425H63.5556L63.4757 29.141C63.0675 29.7415 62.5793 30.1831 62.0114 30.4656C61.4434 30.7481 60.8932 30.9248 60.3607 30.9954C59.8282 31.0837 59.3756 31.1279 59.0029 31.1279ZM59.6418 28.5053C60.3518 28.5053 60.982 28.3727 61.5322 28.1078C62.0824 27.8429 62.5172 27.4721 62.8368 26.9952C63.174 26.5184 63.3426 25.971 63.3426 25.3527V24.9023H60.7867C60.3607 24.9023 59.9347 24.9201 59.5087 24.9554C59.1005 24.973 58.7278 25.0437 58.3905 25.1673C58.0532 25.2733 57.7781 25.441 57.5652 25.6706C57.3699 25.9003 57.2723 26.227 57.2723 26.6508C57.2723 27.0747 57.3788 27.4191 57.5918 27.684C57.8226 27.9489 58.1154 28.152 58.4704 28.2933C58.8431 28.4346 59.2336 28.5053 59.6418 28.5053ZM75.7358 31.1279C73.7118 31.1279 72.1587 30.6069 71.0767 29.5649C70.0113 28.5229 69.4788 26.9335 69.4788 24.7964V16.9815H72.727V24.5845C72.727 25.3262 72.8244 25.971 73.0198 26.5184C73.233 27.0659 73.5615 27.4897 74.0052 27.7899C74.4662 28.0725 75.043 28.2139 75.7358 28.2139C76.4808 28.2139 77.0669 28.0637 77.4928 27.7635C77.9366 27.4456 78.2471 27.0129 78.4247 26.4655C78.6021 25.9179 78.6909 25.2909 78.6909 24.5845V16.9815H81.9387V24.7964C81.9387 26.9864 81.389 28.5936 80.2883 29.6179C79.2054 30.6246 77.6882 31.1279 75.7358 31.1279ZM85.0283 30.9425V16.9815H87.9834L88.1701 18.8094C88.5251 18.2796 88.9245 17.8733 89.3683 17.5908C89.8292 17.2905 90.3173 17.0786 90.8326 16.955C91.365 16.8314 91.8979 16.7695 92.4301 16.7695C92.6243 16.7695 92.802 16.7695 92.9624 16.7695C93.1401 16.7695 93.2821 16.7784 93.3883 16.796V19.869H92.5355C91.613 19.869 90.8326 20.0456 90.1934 20.3988C89.5543 20.7521 89.0748 21.2554 88.7556 21.9088C88.4365 22.5624 88.2761 23.3659 88.2761 24.3195V30.9425H85.0283ZM101.502 31.1279C99.4785 31.1279 97.9248 30.6069 96.842 29.5649C95.7775 28.5229 95.2443 26.9335 95.2443 24.7964V16.9815H98.4937V24.5845C98.4937 25.3262 98.5908 25.971 98.7859 26.5184C98.9994 27.0659 99.3273 27.4897 99.7707 27.7899C100.232 28.0725 100.81 28.2139 101.502 28.2139C102.247 28.2139 102.833 28.0637 103.259 27.7635C103.703 27.4456 104.013 27.0129 104.191 26.4655C104.369 25.9179 104.457 25.2909 104.457 24.5845V16.9815H107.705V24.7964C107.705 26.9864 107.154 28.5936 106.054 29.6179C104.971 30.6246 103.454 31.1279 101.502 31.1279ZM110.795 30.9425V16.9815H113.776L113.989 18.571C114.345 18.0941 114.726 17.732 115.133 17.4847C115.56 17.2199 115.995 17.0344 116.439 16.9285C116.901 16.8225 117.336 16.7695 117.743 16.7695C118.631 16.7695 119.385 16.9461 120.006 17.2994C120.646 17.6526 121.142 18.1824 121.497 18.8889C121.852 18.3944 122.251 17.997 122.695 17.6967C123.139 17.3788 123.61 17.1492 124.106 17.008C124.603 16.849 125.127 16.7695 125.678 16.7695C126.76 16.7695 127.63 16.9991 128.287 17.4583C128.943 17.8998 129.423 18.518 129.724 19.3128C130.026 20.0898 130.177 20.9816 130.177 21.9883V30.9425H126.928V23.0215C126.928 22.6683 126.912 22.2975 126.876 21.9088C126.84 21.5203 126.742 21.1582 126.583 20.8227C126.441 20.4871 126.228 20.2135 125.943 20.0015C125.659 19.7896 125.26 19.6836 124.746 19.6836C124.231 19.6836 123.804 19.7984 123.467 20.028C123.148 20.2399 122.882 20.5313 122.668 20.9022C122.473 21.2554 122.331 21.6527 122.243 22.0944C122.172 22.5182 122.136 22.9421 122.136 23.3659V30.9425H118.888V22.995C118.888 22.6594 118.862 22.3063 118.808 21.9354C118.773 21.5468 118.684 21.1847 118.542 20.8492C118.419 20.496 118.205 20.2135 117.903 20.0015C117.62 19.7896 117.219 19.6836 116.705 19.6836C115.96 19.6836 115.392 19.8867 115.001 20.2929C114.629 20.6991 114.371 21.1936 114.229 21.7764C114.105 22.3593 114.042 22.9156 114.042 23.4453V30.9425H110.795Z" fill="black" fill-opacity="0.2"/>
<path d="M59.0029 31.1279C58.3461 31.1279 57.7249 31.0395 57.1392 30.863C56.5534 30.6864 56.0298 30.4303 55.5684 30.0948C55.1068 29.7415 54.7341 29.3088 54.4501 28.7967C54.1839 28.2668 54.0508 27.6487 54.0508 26.9422C54.0508 26.0415 54.2283 25.3086 54.5833 24.7434C54.9383 24.1606 55.4175 23.7191 56.0209 23.4189C56.6421 23.1187 57.3433 22.9156 58.1242 22.8096C58.9052 22.686 59.7217 22.6242 60.5737 22.6242H63.316C63.316 22.0061 63.2183 21.4761 63.0231 21.0346C62.8279 20.5754 62.5172 20.2135 62.0913 19.9485C61.683 19.6836 61.1506 19.5511 60.4938 19.5511C60.0678 19.5511 59.6685 19.6042 59.2957 19.7101C58.9407 19.7984 58.6301 19.9485 58.3639 20.1604C58.1154 20.3547 57.9379 20.6108 57.8315 20.9287H54.5034C54.6276 20.2046 54.8761 19.5865 55.2488 19.0743C55.6394 18.5445 56.1097 18.1117 56.6599 17.7761C57.2279 17.4406 57.8491 17.1933 58.5237 17.0344C59.1981 16.8578 59.8815 16.7695 60.5737 16.7695C62.6149 16.7695 64.0969 17.3523 65.02 18.518C65.9607 19.6836 66.431 21.3172 66.431 23.4189V30.9425H63.5556L63.4757 29.141C63.0675 29.7415 62.5793 30.1831 62.0114 30.4656C61.4434 30.7481 60.8932 30.9248 60.3607 30.9954C59.8282 31.0837 59.3756 31.1279 59.0029 31.1279ZM59.6418 28.5053C60.3518 28.5053 60.982 28.3727 61.5322 28.1078C62.0824 27.8429 62.5172 27.4721 62.8368 26.9952C63.174 26.5184 63.3426 25.971 63.3426 25.3527V24.9023H60.7867C60.3607 24.9023 59.9347 24.9201 59.5087 24.9554C59.1005 24.973 58.7278 25.0437 58.3905 25.1673C58.0532 25.2733 57.7781 25.441 57.5652 25.6706C57.3699 25.9003 57.2723 26.227 57.2723 26.6508C57.2723 27.0747 57.3788 27.4191 57.5918 27.684C57.8226 27.9489 58.1154 28.152 58.4704 28.2933C58.8431 28.4346 59.2336 28.5053 59.6418 28.5053ZM75.7358 31.1279C73.7118 31.1279 72.1587 30.6069 71.0767 29.5649C70.0113 28.5229 69.4788 26.9335 69.4788 24.7964V16.9815H72.727V24.5845C72.727 25.3262 72.8244 25.971 73.0198 26.5184C73.233 27.0659 73.5615 27.4897 74.0052 27.7899C74.4662 28.0725 75.043 28.2139 75.7358 28.2139C76.4808 28.2139 77.0669 28.0637 77.4928 27.7635C77.9366 27.4456 78.2471 27.0129 78.4247 26.4655C78.6021 25.9179 78.6909 25.2909 78.6909 24.5845V16.9815H81.9387V24.7964C81.9387 26.9864 81.389 28.5936 80.2883 29.6179C79.2054 30.6246 77.6882 31.1279 75.7358 31.1279ZM85.0283 30.9425V16.9815H87.9834L88.1701 18.8094C88.5251 18.2796 88.9245 17.8733 89.3683 17.5908C89.8292 17.2905 90.3173 17.0786 90.8326 16.955C91.365 16.8314 91.8979 16.7695 92.4301 16.7695C92.6243 16.7695 92.802 16.7695 92.9624 16.7695C93.1401 16.7695 93.2821 16.7784 93.3883 16.796V19.869H92.5355C91.613 19.869 90.8326 20.0456 90.1934 20.3988C89.5543 20.7521 89.0748 21.2554 88.7556 21.9088C88.4365 22.5624 88.2761 23.3659 88.2761 24.3195V30.9425H85.0283ZM101.502 31.1279C99.4785 31.1279 97.9248 30.6069 96.842 29.5649C95.7775 28.5229 95.2443 26.9335 95.2443 24.7964V16.9815H98.4937V24.5845C98.4937 25.3262 98.5908 25.971 98.7859 26.5184C98.9994 27.0659 99.3273 27.4897 99.7707 27.7899C100.232 28.0725 100.81 28.2139 101.502 28.2139C102.247 28.2139 102.833 28.0637 103.259 27.7635C103.703 27.4456 104.013 27.0129 104.191 26.4655C104.369 25.9179 104.457 25.2909 104.457 24.5845V16.9815H107.705V24.7964C107.705 26.9864 107.154 28.5936 106.054 29.6179C104.971 30.6246 103.454 31.1279 101.502 31.1279ZM110.795 30.9425V16.9815H113.776L113.989 18.571C114.345 18.0941 114.726 17.732 115.133 17.4847C115.56 17.2199 115.995 17.0344 116.439 16.9285C116.901 16.8225 117.336 16.7695 117.743 16.7695C118.631 16.7695 119.385 16.9461 120.006 17.2994C120.646 17.6526 121.142 18.1824 121.497 18.8889C121.852 18.3944 122.251 17.997 122.695 17.6967C123.139 17.3788 123.61 17.1492 124.106 17.008C124.603 16.849 125.127 16.7695 125.678 16.7695C126.76 16.7695 127.63 16.9991 128.287 17.4583C128.943 17.8998 129.423 18.518 129.724 19.3128C130.026 20.0898 130.177 20.9816 130.177 21.9883V30.9425H126.928V23.0215C126.928 22.6683 126.912 22.2975 126.876 21.9088C126.84 21.5203 126.742 21.1582 126.583 20.8227C126.441 20.4871 126.228 20.2135 125.943 20.0015C125.659 19.7896 125.26 19.6836 124.746 19.6836C124.231 19.6836 123.804 19.7984 123.467 20.028C123.148 20.2399 122.882 20.5313 122.668 20.9022C122.473 21.2554 122.331 21.6527 122.243 22.0944C122.172 22.5182 122.136 22.9421 122.136 23.3659V30.9425H118.888V22.995C118.888 22.6594 118.862 22.3063 118.808 21.9354C118.773 21.5468 118.684 21.1847 118.542 20.8492C118.419 20.496 118.205 20.2135 117.903 20.0015C117.62 19.7896 117.219 19.6836 116.705 19.6836C115.96 19.6836 115.392 19.8867 115.001 20.2929C114.629 20.6991 114.371 21.1936 114.229 21.7764C114.105 22.3593 114.042 22.9156 114.042 23.4453V30.9425H110.795Z" fill="black" fill-opacity="0.2"/>
<path d="M30.8039 36.6745C29.9801 37.0854 29.0741 37.4551 28.0857 37.7838C26.5205 38.2357 24.9555 38.4617 23.3905 38.4617C20.8782 38.4617 18.6129 37.9893 16.5949 37.0443C14.5768 36.1404 12.8882 34.9696 11.529 33.5317C10.1288 32.0936 9.0991 30.4914 8.44013 28.7248C7.69879 26.9582 7.32812 25.2121 7.32812 23.4866C7.32812 21.7611 7.69879 20.015 8.44013 18.2484C9.0991 16.5229 10.1288 14.9412 11.529 13.5032C12.8882 12.0653 14.5768 10.8944 16.5949 9.99053C18.5306 9.08669 20.7958 8.63477 23.3905 8.63477C26.0263 8.63477 28.3121 9.08669 30.2479 9.99053C32.3072 10.9355 33.9752 12.0858 35.2519 13.4416C36.6522 14.8795 37.6818 16.4818 38.3409 18.2484C39.041 20.0972 39.3911 21.8433 39.3911 23.4866V37.8454H32.163V23.4866C32.163 22.3363 31.957 21.2681 31.5453 20.2821C31.1334 19.255 30.5362 18.3306 29.7537 17.5089C28.9712 16.7283 28.0444 16.0915 26.9736 15.5984C25.9028 15.1055 24.7084 14.859 23.3905 14.859C22.0725 14.859 20.8987 15.1055 19.8691 15.5984C18.7571 16.0915 17.8099 16.7283 17.0273 17.5089C16.286 18.2484 15.6888 19.1728 15.2358 20.2821C14.7827 21.3913 14.5562 22.4595 14.5562 23.4866C14.5562 24.6369 14.8033 25.7462 15.2975 26.8144C15.7094 27.8004 16.3478 28.7248 17.2127 29.5875C17.9952 30.3681 18.9424 30.9844 20.0545 31.4364C21.1665 31.8883 22.2784 32.1142 23.3905 32.1142C24.2553 32.1142 25.2232 31.9499 26.2941 31.6212C27.0354 31.3747 27.5502 31.1693 27.8385 31.005L30.8039 36.6745Z" fill="#373741"/>
<path d="M30.8039 36.6745C29.9801 37.0854 29.0741 37.4551 28.0857 37.7838C26.5205 38.2357 24.9555 38.4617 23.3905 38.4617C20.8782 38.4617 18.6129 37.9893 16.5949 37.0443C14.5768 36.1404 12.8882 34.9696 11.529 33.5317C10.1288 32.0936 9.0991 30.4914 8.44013 28.7248C7.69879 26.9582 7.32812 25.2121 7.32812 23.4866C7.32812 21.7611 7.69879 20.015 8.44013 18.2484C9.0991 16.5229 10.1288 14.9412 11.529 13.5032C12.8882 12.0653 14.5768 10.8944 16.5949 9.99053C18.5306 9.08669 20.7958 8.63477 23.3905 8.63477C26.0263 8.63477 28.3121 9.08669 30.2479 9.99053C32.3072 10.9355 33.9752 12.0858 35.2519 13.4416C36.6522 14.8795 37.6818 16.4818 38.3409 18.2484C39.041 20.0972 39.3911 21.8433 39.3911 23.4866V37.8454H32.163V23.4866C32.163 22.3363 31.957 21.2681 31.5453 20.2821C31.1334 19.255 30.5362 18.3306 29.7537 17.5089C28.9712 16.7283 28.0444 16.0915 26.9736 15.5984C25.9028 15.1055 24.7084 14.859 23.3905 14.859C22.0725 14.859 20.8987 15.1055 19.8691 15.5984C18.7571 16.0915 17.8099 16.7283 17.0273 17.5089C16.286 18.2484 15.6888 19.1728 15.2358 20.2821C14.7827 21.3913 14.5562 22.4595 14.5562 23.4866C14.5562 24.6369 14.8033 25.7462 15.2975 26.8144C15.7094 27.8004 16.3478 28.7248 17.2127 29.5875C17.9952 30.3681 18.9424 30.9844 20.0545 31.4364C21.1665 31.8883 22.2784 32.1142 23.3905 32.1142C24.2553 32.1142 25.2232 31.9499 26.2941 31.6212C27.0354 31.3747 27.5502 31.1693 27.8385 31.005L30.8039 36.6745Z" fill="black" fill-opacity="0.2"/>
<path d="M30.8039 36.6745C29.9801 37.0854 29.0741 37.4551 28.0857 37.7838C26.5205 38.2357 24.9555 38.4617 23.3905 38.4617C20.8782 38.4617 18.6129 37.9893 16.5949 37.0443C14.5768 36.1404 12.8882 34.9696 11.529 33.5317C10.1288 32.0936 9.0991 30.4914 8.44013 28.7248C7.69879 26.9582 7.32812 25.2121 7.32812 23.4866C7.32812 21.7611 7.69879 20.015 8.44013 18.2484C9.0991 16.5229 10.1288 14.9412 11.529 13.5032C12.8882 12.0653 14.5768 10.8944 16.5949 9.99053C18.5306 9.08669 20.7958 8.63477 23.3905 8.63477C26.0263 8.63477 28.3121 9.08669 30.2479 9.99053C32.3072 10.9355 33.9752 12.0858 35.2519 13.4416C36.6522 14.8795 37.6818 16.4818 38.3409 18.2484C39.041 20.0972 39.3911 21.8433 39.3911 23.4866V37.8454H32.163V23.4866C32.163 22.3363 31.957 21.2681 31.5453 20.2821C31.1334 19.255 30.5362 18.3306 29.7537 17.5089C28.9712 16.7283 28.0444 16.0915 26.9736 15.5984C25.9028 15.1055 24.7084 14.859 23.3905 14.859C22.0725 14.859 20.8987 15.1055 19.8691 15.5984C18.7571 16.0915 17.8099 16.7283 17.0273 17.5089C16.286 18.2484 15.6888 19.1728 15.2358 20.2821C14.7827 21.3913 14.5562 22.4595 14.5562 23.4866C14.5562 24.6369 14.8033 25.7462 15.2975 26.8144C15.7094 27.8004 16.3478 28.7248 17.2127 29.5875C17.9952 30.3681 18.9424 30.9844 20.0545 31.4364C21.1665 31.8883 22.2784 32.1142 23.3905 32.1142C24.2553 32.1142 25.2232 31.9499 26.2941 31.6212C27.0354 31.3747 27.5502 31.1693 27.8385 31.005L30.8039 36.6745Z" fill="black" fill-opacity="0.2"/>
<path d="M30.8039 36.6745C29.9801 37.0854 29.0741 37.4551 28.0857 37.7838C26.5205 38.2357 24.9555 38.4617 23.3905 38.4617C20.8782 38.4617 18.6129 37.9893 16.5949 37.0443C14.5768 36.1404 12.8882 34.9696 11.529 33.5317C10.1288 32.0936 9.0991 30.4914 8.44013 28.7248C7.69879 26.9582 7.32812 25.2121 7.32812 23.4866C7.32812 21.7611 7.69879 20.015 8.44013 18.2484C9.0991 16.5229 10.1288 14.9412 11.529 13.5032C12.8882 12.0653 14.5768 10.8944 16.5949 9.99053C18.5306 9.08669 20.7958 8.63477 23.3905 8.63477C26.0263 8.63477 28.3121 9.08669 30.2479 9.99053C32.3072 10.9355 33.9752 12.0858 35.2519 13.4416C36.6522 14.8795 37.6818 16.4818 38.3409 18.2484C39.041 20.0972 39.3911 21.8433 39.3911 23.4866V37.8454H32.163V23.4866C32.163 22.3363 31.957 21.2681 31.5453 20.2821C31.1334 19.255 30.5362 18.3306 29.7537 17.5089C28.9712 16.7283 28.0444 16.0915 26.9736 15.5984C25.9028 15.1055 24.7084 14.859 23.3905 14.859C22.0725 14.859 20.8987 15.1055 19.8691 15.5984C18.7571 16.0915 17.8099 16.7283 17.0273 17.5089C16.286 18.2484 15.6888 19.1728 15.2358 20.2821C14.7827 21.3913 14.5562 22.4595 14.5562 23.4866C14.5562 24.6369 14.8033 25.7462 15.2975 26.8144C15.7094 27.8004 16.3478 28.7248 17.2127 29.5875C17.9952 30.3681 18.9424 30.9844 20.0545 31.4364C21.1665 31.8883 22.2784 32.1142 23.3905 32.1142C24.2553 32.1142 25.2232 31.9499 26.2941 31.6212C27.0354 31.3747 27.5502 31.1693 27.8385 31.005L30.8039 36.6745Z" fill="black" fill-opacity="0.2"/>
<path d="M30.8039 36.6745C29.9801 37.0854 29.0741 37.4551 28.0857 37.7838C26.5205 38.2357 24.9555 38.4617 23.3905 38.4617C20.8782 38.4617 18.6129 37.9893 16.5949 37.0443C14.5768 36.1404 12.8882 34.9696 11.529 33.5317C10.1288 32.0936 9.0991 30.4914 8.44013 28.7248C7.69879 26.9582 7.32812 25.2121 7.32812 23.4866C7.32812 21.7611 7.69879 20.015 8.44013 18.2484C9.0991 16.5229 10.1288 14.9412 11.529 13.5032C12.8882 12.0653 14.5768 10.8944 16.5949 9.99053C18.5306 9.08669 20.7958 8.63477 23.3905 8.63477C26.0263 8.63477 28.3121 9.08669 30.2479 9.99053C32.3072 10.9355 33.9752 12.0858 35.2519 13.4416C36.6522 14.8795 37.6818 16.4818 38.3409 18.2484C39.041 20.0972 39.3911 21.8433 39.3911 23.4866V37.8454H32.163V23.4866C32.163 22.3363 31.957 21.2681 31.5453 20.2821C31.1334 19.255 30.5362 18.3306 29.7537 17.5089C28.9712 16.7283 28.0444 16.0915 26.9736 15.5984C25.9028 15.1055 24.7084 14.859 23.3905 14.859C22.0725 14.859 20.8987 15.1055 19.8691 15.5984C18.7571 16.0915 17.8099 16.7283 17.0273 17.5089C16.286 18.2484 15.6888 19.1728 15.2358 20.2821C14.7827 21.3913 14.5562 22.4595 14.5562 23.4866C14.5562 24.6369 14.8033 25.7462 15.2975 26.8144C15.7094 27.8004 16.3478 28.7248 17.2127 29.5875C17.9952 30.3681 18.9424 30.9844 20.0545 31.4364C21.1665 31.8883 22.2784 32.1142 23.3905 32.1142C24.2553 32.1142 25.2232 31.9499 26.2941 31.6212C27.0354 31.3747 27.5502 31.1693 27.8385 31.005L30.8039 36.6745Z" fill="black" fill-opacity="0.2"/>
<path d="M30.8039 36.6745C29.9801 37.0854 29.0741 37.4551 28.0857 37.7838C26.5205 38.2357 24.9555 38.4617 23.3905 38.4617C20.8782 38.4617 18.6129 37.9893 16.5949 37.0443C14.5768 36.1404 12.8882 34.9696 11.529 33.5317C10.1288 32.0936 9.0991 30.4914 8.44013 28.7248C7.69879 26.9582 7.32812 25.2121 7.32812 23.4866C7.32812 21.7611 7.69879 20.015 8.44013 18.2484C9.0991 16.5229 10.1288 14.9412 11.529 13.5032C12.8882 12.0653 14.5768 10.8944 16.5949 9.99053C18.5306 9.08669 20.7958 8.63477 23.3905 8.63477C26.0263 8.63477 28.3121 9.08669 30.2479 9.99053C32.3072 10.9355 33.9752 12.0858 35.2519 13.4416C36.6522 14.8795 37.6818 16.4818 38.3409 18.2484C39.041 20.0972 39.3911 21.8433 39.3911 23.4866V37.8454H32.163V23.4866C32.163 22.3363 31.957 21.2681 31.5453 20.2821C31.1334 19.255 30.5362 18.3306 29.7537 17.5089C28.9712 16.7283 28.0444 16.0915 26.9736 15.5984C25.9028 15.1055 24.7084 14.859 23.3905 14.859C22.0725 14.859 20.8987 15.1055 19.8691 15.5984C18.7571 16.0915 17.8099 16.7283 17.0273 17.5089C16.286 18.2484 15.6888 19.1728 15.2358 20.2821C14.7827 21.3913 14.5562 22.4595 14.5562 23.4866C14.5562 24.6369 14.8033 25.7462 15.2975 26.8144C15.7094 27.8004 16.3478 28.7248 17.2127 29.5875C17.9952 30.3681 18.9424 30.9844 20.0545 31.4364C21.1665 31.8883 22.2784 32.1142 23.3905 32.1142C24.2553 32.1142 25.2232 31.9499 26.2941 31.6212C27.0354 31.3747 27.5502 31.1693 27.8385 31.005L30.8039 36.6745Z" fill="black" fill-opacity="0.2"/>
</g>
<defs>
<clipPath id="clip0_9023_252669">
<rect width="131" height="47" fill="white" transform="translate(0 0.5)"/>
</clipPath>
</defs>
</svg>
